<svg width="1400" height="820" viewBox="0 0 1400 820" fill="none" xmlns="http://www.w3.org/2000/svg" role="img" aria-label="Kyma marketing hero preview">
  <defs>
    <linearGradient id="hero-bg" x1="0" y1="0" x2="1400" y2="820" gradientUnits="userSpaceOnUse">
      <stop stop-color="#E9E4D8"/>
      <stop offset="1" stop-color="#F4EFE4"/>
    </linearGradient>
    <radialGradient id="hero-glow" cx="0" cy="0" r="1" gradientUnits="userSpaceOnUse" gradientTransform="translate(700 180) rotate(90) scale(420)">
      <stop stop-color="#E8FF47" stop-opacity="0.12"/>
      <stop offset="1" stop-color="#E8FF47" stop-opacity="0"/>
    </radialGradient>
    <linearGradient id="card-bg" x1="760" y1="180" x2="1260" y2="700" gradientUnits="userSpaceOnUse">
      <stop stop-color="#141414"/>
      <stop offset="1" stop-color="#0A0A0A"/>
    </linearGradient>
  </defs>
  <rect width="1400" height="820" fill="url(#hero-bg)"/>
  <rect width="1400" height="820" fill="url(#hero-glow)"/>
  <g transform="translate(96 120)">
    <path d="M 6 6 L 6 26" stroke="#10B981" stroke-width="4.5" stroke-linecap="round"/>
    <path d="M 12 12 L 12 20" stroke="#059669" stroke-width="4.5" stroke-linecap="round"/>
    <path d="M 18 6 L 18 26" stroke="#34D399" stroke-width="4.5" stroke-linecap="round"/>
    <path d="M 24 10 L 24 22" stroke="#10B981" stroke-width="4.5" stroke-linecap="round"/>
    <path d="M 30 4 L 30 28" stroke="#059669" stroke-width="4.5" stroke-linecap="round"/>
    <text x="52" y="24" fill="#1E1E1E" font-family="Outfit, ui-sans-serif, sans-serif" font-size="28" font-weight="800" letter-spacing="-0.04em">Kyma</text>
    <rect x="0" y="56" width="360" height="42" rx="21" fill="#E6E4D7" stroke="#D2CBBB"/>
    <text x="20" y="83" fill="#1E1E1E" font-family="Outfit, ui-sans-serif, sans-serif" font-size="16" font-weight="600" letter-spacing="0.12em">LIVE TUTOR SCREENING</text>
    <text x="0" y="180" fill="#1E1E1E" font-family="Outfit, ui-sans-serif, sans-serif" font-size="68" font-weight="700" letter-spacing="-0.05em">Screen tutors on real</text>
    <text x="0" y="252" fill="#1E1E1E" font-family="Outfit, ui-sans-serif, sans-serif" font-size="68" font-weight="700" letter-spacing="-0.05em">teaching, not resumes</text>
    <text x="0" y="330" fill="#5E5A52" font-family="Outfit, ui-sans-serif, sans-serif" font-size="24" font-weight="500">Live AI-led interviews with structured, evidence-backed review packets.</text>
    <rect x="0" y="390" width="250" height="58" rx="16" fill="#2E2E2E"/>
    <text x="28" y="428" fill="#E6E4D7" font-family="Outfit, ui-sans-serif, sans-serif" font-size="20" font-weight="600">Start screening tutors</text>
    <rect x="270" y="390" width="250" height="58" rx="16" fill="#F4EFE4" stroke="#D2CBBB"/>
    <text x="298" y="428" fill="#1E1E1E" font-family="Outfit, ui-sans-serif, sans-serif" font-size="20" font-weight="600">Try the candidate flow</text>
  </g>
  <rect x="760" y="150" width="540" height="520" rx="32" fill="url(#card-bg)" stroke="#2A2A2A" stroke-width="2"/>
  <rect x="790" y="180" width="480" height="36" rx="18" fill="#1C1C1C"/>
  <circle cx="812" cy="198" r="6" fill="#EF4444"/>
  <circle cx="834" cy="198" r="6" fill="#E8FF47"/>
  <circle cx="856" cy="198" r="6" fill="#10B981"/>
  <rect x="900" y="188" width="300" height="20" rx="10" fill="#252525"/>
  <text x="790" y="270" fill="#E8FF47" font-family="Outfit, ui-sans-serif, sans-serif" font-size="14" font-weight="700" letter-spacing="0.16em">INTERVIEW IN PROGRESS</text>
  <rect x="790" y="300" width="480" height="120" rx="24" fill="#1C1C1C" stroke="#2A2A2A"/>
  <path d="M 820 360 L 820 390 M 850 340 L 850 410 M 880 350 L 880 400 M 910 345 L 910 405 M 940 335 L 940 415" stroke="#10B981" stroke-width="8" stroke-linecap="round"/>
  <text x="980" y="365" fill="#E8E3DA" font-family="Outfit, ui-sans-serif, sans-serif" font-size="28" font-weight="700">Teaching simulation</text>
  <text x="980" y="400" fill="#8E8A83" font-family="Outfit, ui-sans-serif, sans-serif" font-size="18" font-weight="500">Candidate explains a concept clearly</text>
  <rect x="790" y="450" width="220" height="90" rx="20" fill="#1C1C1C" stroke="#2A2A2A"/>
  <text x="814" y="486" fill="#E8E3DA" font-family="Outfit, ui-sans-serif, sans-serif" font-size="18" font-weight="600">Clarity</text>
  <text x="814" y="516" fill="#10B981" font-family="Outfit, ui-sans-serif, sans-serif" font-size="28" font-weight="700">Strong</text>
  <rect x="1030" y="450" width="240" height="90" rx="20" fill="#1C1C1C" stroke="#2A2A2A"/>
  <text x="1054" y="486" fill="#E8E3DA" font-family="Outfit, ui-sans-serif, sans-serif" font-size="18" font-weight="600">Evidence</text>
  <text x="1054" y="516" fill="#8E8A83" font-family="Outfit, ui-sans-serif, sans-serif" font-size="18" font-weight="500">Transcript cited</text>
  <rect x="790" y="570" width="480" height="70" rx="20" fill="#252525"/>
  <text x="814" y="614" fill="#E8E3DA" font-family="Outfit, ui-sans-serif, sans-serif" font-size="20" font-weight="600">Evidence-backed report ready for review</text>
</svg>
