<svg width="1400" height="820" viewBox="0 0 1400 820" fill="none" xmlns="http://www.w3.org/2000/svg" role="img" aria-label="Kyma recruiter dashboard preview">
  <defs>
    <linearGradient id="recruiter-bg" x1="0" y1="0" x2="1400" y2="820" gradientUnits="userSpaceOnUse">
      <stop stop-color="#111111"/>
      <stop offset="1" stop-color="#0A0A0A"/>
    </linearGradient>
  </defs>
  <rect width="1400" height="820" fill="url(#recruiter-bg)"/>
  <rect x="72" y="72" width="220" height="676" rx="28" fill="#141414" stroke="#2A2A2A"/>
  <path d="M 108 118 L 108 138 M 124 126 L 124 130 M 140 118 L 140 138 M 156 122 L 156 134 M 172 114 L 172 142" stroke="#10B981" stroke-width="4" stroke-linecap="round"/>
  <text x="196" y="134" fill="#E8E3DA" font-family="Outfit, ui-sans-serif, sans-serif" font-size="22" font-weight="800">Kyma</text>
  <rect x="104" y="180" width="156" height="40" rx="12" fill="#252525"/>
  <text x="124" y="206" fill="#E8E3DA" font-family="Outfit, ui-sans-serif, sans-serif" font-size="16" font-weight="600">Candidates</text>
  <rect x="104" y="236" width="156" height="40" rx="12" fill="#1C1C1C"/>
  <text x="124" y="262" fill="#8E8A83" font-family="Outfit, ui-sans-serif, sans-serif" font-size="16" font-weight="600">Screenings</text>
  <rect x="320" y="72" width="1008" height="676" rx="28" fill="#141414" stroke="#2A2A2A"/>
  <text x="360" y="132" fill="#E8FF47" font-family="Outfit, ui-sans-serif, sans-serif" font-size="14" font-weight="700" letter-spacing="0.16em">RECRUITER WORKSPACE</text>
  <text x="360" y="182" fill="#E8E3DA" font-family="Outfit, ui-sans-serif, sans-serif" font-size="44" font-weight="700">Review queue</text>
  <rect x="1080" y="108" width="200" height="48" rx="14" fill="#E8FF47"/>
  <text x="1110" y="140" fill="#0A0A0A" font-family="Outfit, ui-sans-serif, sans-serif" font-size="16" font-weight="700">Needs attention</text>
  <rect x="360" y="220" width="920" height="110" rx="24" fill="#1C1C1C" stroke="#10B981" stroke-width="2"/>
  <text x="388" y="262" fill="#E8E3DA" font-family="Outfit, ui-sans-serif, sans-serif" font-size="24" font-weight="700">Aisha Khan</text>
  <text x="388" y="296" fill="#8E8A83" font-family="Outfit, ui-sans-serif, sans-serif" font-size="18">Math tutor cohort - completed 12 min ago</text>
  <rect x="1080" y="252" width="170" height="42" rx="12" fill="#252525"/>
  <text x="1104" y="280" fill="#10B981" font-family="Outfit, ui-sans-serif, sans-serif" font-size="16" font-weight="700">Recommend pass</text>
  <rect x="360" y="360" width="920" height="110" rx="24" fill="#1C1C1C" stroke="#2A2A2A"/>
  <text x="388" y="402" fill="#E8E3DA" font-family="Outfit, ui-sans-serif, sans-serif" font-size="24" font-weight="700">Marco Silva</text>
  <text x="388" y="436" fill="#8E8A83" font-family="Outfit, ui-sans-serif, sans-serif" font-size="18">Reading tutor cohort - completed 28 min ago</text>
  <rect x="360" y="500" width="440" height="200" rx="24" fill="#1C1C1C" stroke="#2A2A2A"/>
  <text x="388" y="544" fill="#E8E3DA" font-family="Outfit, ui-sans-serif, sans-serif" font-size="20" font-weight="700">Evidence snapshot</text>
  <rect x="388" y="568" width="360" height="44" rx="12" fill="#252525"/>
  <text x="404" y="597" fill="#8E8A83" font-family="IBM Plex Mono, monospace" font-size="14">I would start with a concrete example...</text>
  <rect x="388" y="624" width="160" height="34" rx="10" fill="#141414" stroke="#2A2A2A"/>
  <text x="404" y="647" fill="#E8FF47" font-family="Outfit, ui-sans-serif, sans-serif" font-size="13" font-weight="700">Clarity - Strong</text>
  <rect x="560" y="624" width="188" height="34" rx="10" fill="#141414" stroke="#2A2A2A"/>
  <text x="576" y="647" fill="#10B981" font-family="Outfit, ui-sans-serif, sans-serif" font-size="13" font-weight="700">Patience - Strong</text>
  <rect x="840" y="500" width="440" height="200" rx="24" fill="#1C1C1C" stroke="#2A2A2A"/>
  <text x="868" y="544" fill="#E8E3DA" font-family="Outfit, ui-sans-serif, sans-serif" font-size="20" font-weight="700">Report copilot</text>
  <rect x="868" y="568" width="384" height="92" rx="18" fill="#252525"/>
  <text x="888" y="604" fill="#E8E3DA" font-family="Outfit, ui-sans-serif, sans-serif" font-size="18" font-weight="600">Why was patience scored strong?</text>
  <text x="888" y="636" fill="#8E8A83" font-family="Outfit, ui-sans-serif, sans-serif" font-size="15">Grounded in transcript evidence</text>
</svg>
